<?xml version="1.0" encoding="UTF-8"?>
<svg width="92px" height="20px" viewBox="0 0 92 20" version="1.1" xmlns="http://www.w3.org/2000/svg" xmlns:xlink="http://www.w3.org/1999/xlink">
    <!-- Generator: Sketch 46.2 (44496) - http://www.bohemiancoding.com/sketch -->
    <title>Axle_Logo_Refined</title>
    <desc>Created with Sketch.</desc>
    <defs>
        <polygon id="path-1" points="12.8367635 0.0857142857 0.200580989 0.0857142857 0.200580989 19.6427857 12.8367635 19.6427857 12.8367635 0.0857142857"></polygon>
        <polygon id="path-3" points="14.090692 9.86425 14.090692 0.0857142857 0.0468745247 0.0857142857 0.0468745247 19.6427857 14.090692 19.6427857"></polygon>
    </defs>
    <g id="Desktop" stroke="none" stroke-width="1" fill="none" fill-rule="evenodd">
        <g id="Trucking-Company" transform="translate(-45.000000, -50.000000)">
            <g id="Axle_Logo_Refined" transform="translate(45.000000, 50.000000)">
                <g id="Page-1">
                    <path d="M26.0609065,12.7016071 L29.3123894,12.7016071 C29.831857,12.7016071 30.1963589,12.17875 30.0260015,11.6776786 L27.6742297,4.75482143 L25.3462449,11.6798214 C25.1779863,12.1805357 25.5424882,12.7016071 26.0609065,12.7016071 M30.9421536,16.9526786 L24.4346403,16.9526786 C24.0019255,16.9526786 23.6178342,17.2344643 23.4796593,17.6530357 L22.7342144,19.9141071 L17.3639331,19.9141071 L24.5721156,0.357321429 L30.7752943,0.357321429 L38.0128608,19.9141071 L32.6422297,19.9141071 L31.8971346,17.6530357 C31.7589597,17.2344643 31.3745186,16.9526786 30.9421536,16.9526786" id="Fill-1" fill="#000000"></path>
                    <path d="M48.4555605,14.6801786 L45.1376137,19.9141071 L39.2786479,19.9141071 L45.5867696,10.46125 C45.8183437,10.1144643 45.8200928,9.65803571 45.5909673,9.30946429 L39.7089141,0.357321429 L45.5384958,0.357321429 L48.4412183,5.08410714 C48.8375529,5.72946429 49.7600015,5.72625 50.1521384,5.07767857 L53.0065871,0.357321429 L58.8645034,0.357321429 L53.0100852,9.28196429 C52.7816593,9.62946429 52.7827087,10.08375 53.012184,10.4305357 L59.295819,19.9141071 L53.4658875,19.9141071 L50.1472411,14.6801786 C49.749857,14.0541071 48.8525947,14.0541071 48.4555605,14.6801786" id="Fill-3" fill="#000000"></path>
                    <g id="Group-7" transform="translate(61.916350, 0.271500)">
                        <mask id="mask-2" fill="white">
                            <use xlink:href="#path-1"></use>
                        </mask>
                        <g id="Clip-6"></g>
                        <path d="M0.200580989,0.0856428571 L5.1405962,0.0856428571 L5.1405962,14.2163571 C5.1405962,14.7845714 5.59185095,15.2449286 6.14839848,15.2449286 L12.8367635,15.2449286 L12.8367635,19.6427857 L1.20838327,19.6427857 C0.651835741,19.6427857 0.200580989,19.1824286 0.200580989,18.6142143 L0.200580989,0.0856428571 Z" id="Fill-5" fill="#000000" mask="url(#mask-2)"></path>
                    </g>
                    <g id="Group-10" transform="translate(77.657795, 0.271500)">
                        <mask id="mask-4" fill="white">
                            <use xlink:href="#path-3"></use>
                        </mask>
                        <g id="Clip-9"></g>
                        <path d="M0.0468745247,0.0856428571 L14.090692,0.0856428571 L14.090692,4.33635714 L5.99329278,4.33635714 C5.43674525,4.33635714 4.9858403,4.79707143 4.9858403,5.36492857 L4.9858403,6.5635 C4.9858403,7.13171429 5.43674525,7.59207143 5.99329278,7.59207143 L11.4951027,7.59207143 L11.4951027,11.8727857 L5.99329278,11.8727857 C5.43674525,11.8727857 4.9858403,12.3331429 4.9858403,12.9013571 L4.9858403,14.3624286 C4.9858403,14.9299286 5.43674525,15.3906429 5.99329278,15.3906429 L14.090692,15.3906429 L14.090692,19.6427857 L0.0468745247,19.6427857 L0.0468745247,0.0856428571 Z" id="Fill-8" fill="#000000" mask="url(#mask-4)"></path>
                    </g>
                    <path d="M18.7958449,4.62160714 L9.61893232,4.62160714 L10.9475103,1.02303571 C11.0954798,0.622321429 11.4711757,0.357321429 11.8905977,0.357321429 L21.0675103,0.357321429 L19.7385825,3.95589286 C19.5906129,4.35660714 19.2152669,4.62160714 18.7958449,4.62160714" id="Fill-11" fill="#A6DB03"></path>
                    <path d="M15.9833734,12.2680714 L4.81499316,12.2680714 L6.14392091,8.66914286 C6.29189049,8.26878571 6.6672365,8.00378571 7.08665856,8.00378571 L18.254689,8.00378571 L16.9257612,11.6023571 C16.7777916,12.0030714 16.4024456,12.2680714 15.9833734,12.2680714" id="Fill-13" fill="#A6DB03"></path>
                    <path d="M13.1589384,19.9142143 L0.000139923954,19.9142143 L1.32906768,16.3156429 C1.47668745,15.9152857 1.85238327,15.6499286 2.27145551,15.6499286 L15.4306038,15.6499286 L14.101676,19.2488571 C13.9537065,19.6492143 13.5783605,19.9142143 13.1589384,19.9142143" id="Fill-15" fill="#A6DB03"></path>
                </g>
            </g>
        </g>
    </g>
</svg>