<?xml version="1.0" ?><svg style="enable-background:new 0 0 48 48;" version="1.1" viewBox="0 0 48 48" xml:space="preserve" xmlns="http://www.w3.org/2000/svg" xmlns:xlink="http://www.w3.org/1999/xlink"><style type="text/css">
	.st0{display:none;}
	.st1{fill:none;stroke:#303030;stroke-width:0.7;stroke-linecap:round;stroke-linejoin:round;stroke-miterlimit:10;}
	.st2{fill:#303030;}
</style><g class="st0" id="Padding__x26__Artboard"/><g id="Icons"><g><g><g><g><path class="st1" d="M30.29149,34.01368h-7.8765H8.85186c0.04415-1.50996-0.23841-3.30248,1.00664-4.3621       c0.98015-0.83887,2.38414-1.07728,3.60271-1.54528c0.80354-0.30022,1.6689-0.44151,2.44595-0.78588       c0.8477-0.3797,0.87419-1.00664,0.47683-1.82784c-0.74173-1.51879-1.73071-3.04641-1.93381-4.65349       c-0.21192-1.64241-0.25607-3.5144,0.8477-5.05968c0.10596-0.15011,0.22075-0.2914,0.35321-0.42385       c0.88302-0.90951,2.4018-1.404,3.92059-1.36867"/></g></g><g><g><path class="st1" d="M19.57167,13.98687c1.51879-0.03532,3.03757,0.45917,3.92059,1.36867       c0.13245,0.13245,0.24724,0.27374,0.35321,0.42385c1.10377,1.54528,1.05962,3.41727,0.84769,5.05968       c-0.20309,1.60709-1.19207,3.13471-1.9338,4.65349c-0.39736,0.82121-0.37087,1.44815,0.47683,1.82784       c0.77705,0.34438,1.64241,0.48566,2.44596,0.78588c0.68875,0.26491,1.43048,0.45034,2.12807,0.72407h0.00883       c0.53864,0.20309,1.04196,0.45917,1.46581,0.82121c1.24505,1.05962,0.96249,2.85214,1.00664,4.3621"/></g></g></g><g><g><g><path class="st1" d="M39.14814,34.01368H31.9339 M28.23418,27.48416c-0.03532-0.14128-0.0883-0.28257-0.16777-0.45034       c-0.58279-1.18324-1.12155-2.04457-1.2805-3.29845c-0.16777-1.28037-0.20309-2.74618,0.66226-3.94708       c0.07947-0.12362,0.16777-0.22958,0.27374-0.33555c0.68875-0.70641,1.87199-1.09494,3.05523-1.06845 M30.29149,34.01368       h-7.8765 M27.81904,28.83037h-0.00883"/></g></g><g><g><path class="st1" d="M30.77715,18.38429c1.18324-0.02649,2.37531,0.36204,3.06407,1.06845       c0.09713,0.10596,0.19426,0.21192,0.27374,0.33555c0.85653,1.2009,0.83004,2.66671,0.66226,3.94708       c-0.15894,1.25388-0.936,2.44596-1.50996,3.6292c-0.30906,0.6446-0.2914,1.13026,0.37086,1.43049       c0.60928,0.2649,1.28038,0.3797,1.90731,0.60928c0.95366,0.36204,2.0486,0.5563,2.81682,1.20973       c0.96249,0.82121,0.74173,2.21637,0.78588,3.39961"/></g></g></g><path class="st1" d="M28.22791,27.48619c0.93188,0.3166,2.16577,1.02243,2.79418,1.82247    c1.04085,1.32513,0.9115,3.12278,0.9115,4.70623"/><path class="st1" d="M17.40042,15.75853c0,0-1.73802,0.82553-1.51415,3.29165"/><line class="st1" x1="16.00209" x2="16.19512" y1="20.4014" y2="21.17353"/></g></g></svg>