<?xml version="1.0" encoding="UTF-8" standalone="no"?>
<svg width="146px" height="170px" viewBox="0 0 146 170" version="1.1" xmlns="http://www.w3.org/2000/svg" xmlns:xlink="http://www.w3.org/1999/xlink">
    <!-- Generator: sketchtool 45 (43471) - http://www.bohemiancoding.com/sketch -->
    <title>Full Truckload_Illustration</title>
    <desc>Created with sketchtool.</desc>
    <defs></defs>
    <g id="Shipper-Portal" stroke="none" stroke-width="1" fill="none" fill-rule="evenodd">
        <g id="Creating-Shipment_Processing" transform="translate(-647.000000, -349.000000)" stroke="#000000">
            <g id="Full-Truckload_Illustration" transform="translate(648.000000, 350.000000)">
                <path d="M123.44086,102.750507 L123.44086,34.7258012 C123.44086,26.0697872 116.236406,23.452593 112.016177,23.452593 L32.1630993,23.452593 C27.9456542,23.452593 20.7384163,26.0697872 20.7384163,34.7258012 L20.7384163,102.750507 C20.7384163,102.750507 4.19433962,102.602469 4.19433962,110.118873 L4.19433962,130.050888 L139.984937,130.050888 L139.984937,110.118873 C139.984937,102.602469 123.44086,102.750507 123.44086,102.750507 Z" id="Stroke-29" fill="#FFFFFF" fill-rule="evenodd"></path>
                <polygon id="Stroke-1" points="61.5245902 145.60043 82.6535725 145.60043 82.6535725 136.908105 61.5245902 136.908105"></polygon>
                <polygon id="Stroke-2" fill="#A5DB03" fill-rule="evenodd" points="23.960099 120.942382 34.4048871 120.942382 34.4048871 112.250057 23.960099 112.250057"></polygon>
                <polygon id="Stroke-3" fill="#FFFFFF" fill-rule="evenodd" points="107.072719 23.4481239 37.3498608 23.4481239 30.0507578 6.40144653 114.371822 6.40144653"></polygon>
                <polygon id="Stroke-4" fill="#A5DB03" fill-rule="evenodd" points="13.2759047 120.942382 23.960099 120.942382 23.960099 112.250057 13.2759047 112.250057"></polygon>
                <polygon id="Stroke-5" fill="#A5DB03" fill-rule="evenodd" points="120.702444 120.942382 131.144448 120.942382 131.144448 112.250057 120.702444 112.250057"></polygon>
                <polygon id="Stroke-6" fill="#A5DB03" fill-rule="evenodd" points="110.015466 120.942382 120.702444 120.942382 120.702444 112.250057 110.015466 112.250057"></polygon>
                <polygon id="Stroke-7" fill="#FFFFFF" fill-rule="evenodd" points="116.729972 167.794908 138.521497 167.794908 138.521497 152.454853 116.729972 152.454853"></polygon>
                <polygon id="Stroke-9" fill="#FFFFFF" fill-rule="evenodd" points="111.03155 162.328686 116.729972 162.328686 116.729972 152.454853 111.03155 152.454853"></polygon>
                <polygon id="Stroke-10" fill="#FFFFFF" fill-rule="evenodd" points="5.65944943 167.794908 27.4509743 167.794908 27.4509743 152.454853 5.65944943 152.454853"></polygon>
                <polygon id="Stroke-12" fill="#FFFFFF" fill-rule="evenodd" points="27.4509743 162.328686 33.1493968 162.328686 33.1493968 152.454853 27.4509743 152.454853"></polygon>
                <polygon id="Stroke-13" fill="#FFFFFF" fill-rule="evenodd" points="0.211568203 152.454853 143.969378 152.454853 143.969378 130.050888 0.211568203 130.050888"></polygon>
                <path d="M96.74485,120.941544 L47.4383235,120.941544 L43.802691,113.65418 L43.802691,87.8788663 C43.802691,87.8788663 51.5722549,82.4154383 72.0915868,82.4154383 C92.6109187,82.4154383 100.377699,87.8788663 100.377699,87.8788663 L100.377699,113.65418 L96.74485,120.941544 Z" id="Stroke-15"></path>
                <polygon id="Stroke-16" fill="#FFFFFF" fill-rule="evenodd" points="20.7370244 73.30358 14.6767089 73.30358 14.6767089 6.25648134 9.22882771 0.206489013 13.4128673 0.206489013 15.2891432 0.206489013 20.7370244 6.40451901"></polygon>
                <polygon id="Stroke-17" fill="#FFFFFF" fill-rule="evenodd" points="123.457284 73.30358 129.5176 73.30358 129.5176 6.25648134 134.965481 0.206489013 130.781441 0.206489013 128.905165 0.206489013 123.457284 6.40451901"></polygon>
                <polygon id="Stroke-18" points="107.108073 73.30358 37.0734303 73.30358 29.8077328 66.8988559 29.8077328 42.4279498 114.370987 42.4279498 114.370987 66.8988559"></polygon>
                <path d="M100.376864,89.7039194 L43.8046397,89.7039194" id="Stroke-19"></path>
                <path d="M100.376864,97.685105 L43.8046397,97.685105" id="Stroke-20"></path>
                <path d="M100.376864,105.669084 L43.8046397,105.669084" id="Stroke-21"></path>
                <path d="M100.376864,113.653063 L43.8046397,113.653063" id="Stroke-22"></path>
                <path d="M20.7398082,102.750507 L20.7398082,73.3049766 L9.38472007,73.3049766 L9.38472007,104.504614 C14.2368698,102.691851 20.7398082,102.750507 20.7398082,102.750507 Z" id="Stroke-27" fill="#FFFFFF" fill-rule="evenodd"></path>
                <path d="M123.674698,102.750507 L123.674698,73.3049766 L135.027003,73.3049766 L135.027003,104.504614 C130.174853,102.691851 123.674698,102.750507 123.674698,102.750507 Z" id="Stroke-28" fill="#FFFFFF" fill-rule="evenodd"></path>
                <path d="M53.0821837,32.9376179 C53.0821837,34.4487194 51.8628828,35.672125 50.3568512,35.672125 C48.8536035,35.672125 47.6343025,34.4487194 47.6343025,32.9376179 C47.6343025,31.4265164 48.8536035,30.2031107 50.3568512,30.2031107 C51.8628828,30.2031107 53.0821837,31.4265164 53.0821837,32.9376179" id="Fill-23" fill="#A5DB03" fill-rule="evenodd"></path>
                <path d="M67.6102382,32.9376179 C67.6102382,34.4487194 66.3909372,35.672125 64.8849057,35.672125 C63.3816579,35.672125 62.1623569,34.4487194 62.1623569,32.9376179 C62.1623569,31.4265164 63.3816579,30.2031107 64.8849057,30.2031107 C66.3909372,30.2031107 67.6102382,31.4265164 67.6102382,32.9376179" id="Fill-24" fill="#A5DB03" fill-rule="evenodd"></path>
                <path d="M82.2605011,32.9376179 C82.2605011,34.4487194 81.0412001,35.672125 79.5351686,35.672125 C78.029137,35.672125 76.8126199,34.4487194 76.8126199,32.9376179 C76.8126199,31.4265164 78.029137,30.2031107 79.5351686,30.2031107 C81.0412001,30.2031107 82.2605011,31.4265164 82.2605011,32.9376179" id="Fill-25" fill="#A5DB03" fill-rule="evenodd"></path>
                <path d="M96.7882771,32.9376179 C96.7882771,34.4487194 95.5689762,35.672125 94.0629446,35.672125 C92.5569131,35.672125 91.3403959,34.4487194 91.3403959,32.9376179 C91.3403959,31.4265164 92.5569131,30.2031107 94.0629446,30.2031107 C95.5689762,30.2031107 96.7882771,31.4265164 96.7882771,32.9376179" id="Fill-26" fill="#A5DB03" fill-rule="evenodd"></path>
            </g>
        </g>
    </g>
</svg>