<?xml version="1.0" encoding="UTF-8" standalone="no"?>
<svg width="22px" height="22px" viewBox="0 0 22 22" version="1.1" xmlns="http://www.w3.org/2000/svg" xmlns:xlink="http://www.w3.org/1999/xlink">
    <!-- Generator: sketchtool 45 (43471) - http://www.bohemiancoding.com/sketch -->
    <title>Gift</title>
    <desc>Created with sketchtool.</desc>
    <defs></defs>
    <g id="Shipper-Portal" stroke="none" stroke-width="1" fill="none" fill-rule="evenodd">
        <g id="Account_Past-Shipments" transform="translate(-25.000000, -264.000000)" stroke="#000000">
            <g id="Subnav" transform="translate(-1.000000, 136.000000)">
                <g id="Gift" transform="translate(26.000000, 129.000000)">
                    <path d="M1.8788,8.8026 L20.1208,8.8026" id="Stroke-9"></path>
                    <path d="M10.9999,8.8026 L10.9999,19.8846" id="Stroke-13"></path>
                    <polygon id="Stroke-1" points="21.4999 3.9974 0.4999 3.9974 0.4999 8.8064 1.8789 8.8064 1.8789 19.8844 9.0049 19.8844 10.2619 19.8844 20.1209 19.8844 20.1209 8.8064 21.4999 8.8064"></polygon>
                    <path d="M5.3178,1.4242 C5.5078,0.8342 5.8618,0.6762 5.9778,0.6242 C6.1628,0.5422 6.3798,0.5002 6.6238,0.5002 C7.7958,0.5002 9.5808,1.4962 10.7268,3.4022 C10.8458,3.5992 10.9518,3.7982 11.0468,3.9972 L5.5598,3.9972 C5.1328,2.9122 5.1358,1.9902 5.3178,1.4242 Z" id="Stroke-3"></path>
                    <path d="M11.3671,3.4017 C12.5131,1.4967 14.2981,0.4997 15.4701,0.4997 C15.7141,0.4997 15.9301,0.5417 16.1161,0.6247 C16.2321,0.6757 16.5861,0.8337 16.7751,1.4237 C16.9581,1.9897 16.9601,2.9117 16.5341,3.9977 L11.0471,3.9977 C11.1411,3.7977 11.2481,3.5987 11.3671,3.4017 Z" id="Stroke-5"></path>
                </g>
            </g>
        </g>
    </g>
</svg>