<?xml version="1.0" encoding="UTF-8" standalone="no"?>
<svg width="20px" height="20px" viewBox="0 0 20 20" version="1.1" xmlns="http://www.w3.org/2000/svg" xmlns:xlink="http://www.w3.org/1999/xlink">
    <!-- Generator: sketchtool 45 (43471) - http://www.bohemiancoding.com/sketch -->
    <title>instagram</title>
    <desc>Created with sketchtool.</desc>
    <defs></defs>
    <g id="Shipper-Portal" stroke="none" stroke-width="1" fill="none" fill-rule="evenodd">
        <g id="Account_Referrals" transform="translate(-727.000000, -658.000000)">
            <g id="Social-icons" transform="translate(642.000000, 658.000000)">
                <g id="instagram" transform="translate(87.000000, 2.000000)">
                    <path d="M17,11.7007011 C17,14.6341935 14.5633298,17 11.5720005,17 L4.42811187,17 C1.4367687,17 -1,14.6341808 -1,11.7007011 L-1,4.29940806 C-1,1.36599106 1.43681758,-1 4.42811187,-1 L11.5720005,-1 C14.563281,-1 17,1.36597835 17,4.29940806 L17,11.7007011 Z" id="Conatiner" stroke="#000000" stroke-width="2"></path>
                    <path d="M11.9987678,8.00081439 C11.9504832,10.2090962 10.2082329,12 7.99938391,12 C5.79053496,12 4,10.2095538 4,8.00081439 C4,5.79218937 5.79156472,3.93721436 7.99938391,4.00162878 C10.6887905,4.08011597 12.0468236,5.79996944 11.9987678,8.00081439 Z" id="Lens" stroke="#000000" stroke-width="2"></path>
                    <path d="M14,3 C14,3.55232558 13.5522236,4 12.999898,4 C12.4476744,4 12,3.55232558 12,3 C12,2.44767442 12.4476744,2 12.999898,2 C13.5522236,2 14,2.44767442 14,3" id="Sensor" fill="#000000"></path>
                </g>
            </g>
        </g>
    </g>
</svg>