<?xml version="1.0" encoding="UTF-8" standalone="no"?>
<svg width="167px" height="180px" viewBox="0 0 167 180" version="1.1" xmlns="http://www.w3.org/2000/svg" xmlns:xlink="http://www.w3.org/1999/xlink">
    <!-- Generator: sketchtool 45 (43471) - http://www.bohemiancoding.com/sketch -->
    <title>More Money_Illustration</title>
    <desc>Created with sketchtool.</desc>
    <defs></defs>
    <g id="Shipper-Portal" stroke="none" stroke-width="1" fill="none" fill-rule="evenodd">
        <g id="Account_Referrals" transform="translate(-643.000000, -293.000000)">
            <g id="More-Money_Illustration" transform="translate(643.000000, 294.000000)">
                <polyline id="Stroke-2" stroke="#000000" stroke-width="1" points="0.307312483 64.4719367 134.294165 39.0350877 134.294165 64.0175439"></polyline>
                <polygon id="Fill-4" stroke="#FFFFFF" stroke-width="1" fill="#A5DB03" fill-rule="evenodd" points="53.6539701 151.45614 25.2747136 18.4179451 88.7832801 4.68421053 117.162537 137.726465"></polygon>
                <polygon id="Fill-6" stroke="#FFFFFF" stroke-width="1" fill="#A5DB03" fill-rule="evenodd" points="6.5856648 20.1600672 48.5548766 149.894737 110.932854 129.73467 68.9636419 0"></polygon>
                <path d="M61.2979772,60.8653162 C61.2979772,57.5353925 58.4783387,56.3072457 55.1174302,55.2816798 L55.1174302,66.3413315 C59.7874566,65.948831 61.2979772,63.1126982 61.2979772,60.8653162 M52.1530335,50.0462294 L52.1530335,40.0691195 C48.6473668,40.2653698 46.2179461,42.3165015 46.2179461,45.2032795 C46.2179461,47.9950977 48.8865326,49.121954 52.1530335,50.0462294 M55.1174302,70.0067798 L55.1174302,74.4129147 L52.1530335,74.4129147 L52.1530335,70.0637557 C47.1934907,69.766215 43.4486582,67.7087526 41.0129437,64.9232651 L43.4486582,61.8402369 C45.3431029,63.9989897 48.3137935,65.9994762 52.1530335,66.3919767 L52.1530335,54.4966788 C47.1934907,53.1799029 42.0262513,51.4706265 42.0262513,45.4438443 C42.0262513,40.3603296 46.3123536,36.789841 52.1530335,36.3973405 L52.1530335,31.9468911 L55.1174302,31.9468911 L55.1174302,36.4923003 C59.158073,36.8341556 62.3679293,38.4548029 64.7029425,40.9427497 L62.267228,43.9308182 C60.3727833,41.778396 57.8426612,40.6008944 55.1174302,40.2147246 L55.1174302,50.8312305 C60.1273237,52.2492968 65.4267337,54.110509 65.4267337,60.5234609 C65.4267337,64.9232651 62.6574458,69.4686743 55.1174302,70.0067798" id="Fill-9" fill="#FFFFFF" fill-rule="evenodd" transform="translate(53.219839, 53.179903) rotate(-19.000000) translate(-53.219839, -53.179903) "></path>
                <polygon id="Fill-11" fill="#FFFFFF" fill-rule="evenodd" points="0.819499956 177.531579 152.684967 177.531579 152.684967 64.515007 0.819499956 64.515007"></polygon>
                <polygon id="Stroke-13" stroke="#000000" stroke-width="1" points="0.819499956 177.531579 152.684967 177.531579 152.684967 64.515007 0.819499956 64.515007"></polygon>
                <polygon id="Fill-14" stroke="#000000" stroke-width="1" fill="#FFFFFF" fill-rule="evenodd" points="126.073245 134.734758 165.80086 134.734758 165.80086 107.307768 126.073245 107.307768"></polygon>
                <polyline id="Stroke-16" stroke="#000000" stroke-width="1" points="152.684563 163.474232 147.260363 159.727176 141.836164 163.474232 136.416006 159.727176 130.991806 163.474232 125.567606 159.727176 120.143407 163.474232 114.715165 159.727176 109.295007 163.474232 103.870807 159.727176 98.4466075 163.474232 93.0224078 159.727176 87.598208 163.474232 82.1780502 159.727176 76.7538504 163.474232 71.3296507 159.727176 65.9054509 163.474232 60.4812512 159.727176 55.0570514 163.474232 49.6328517 159.727176 44.2086519 163.474232 38.7844521 159.727176 33.3642943 163.474232 27.9400945 159.727176 22.5158948 163.474232 17.091695 159.727176 11.6674953 163.474232 6.24329552 159.727176 0.819095768 163.474232"></polyline>
            </g>
        </g>
    </g>
</svg>