<?xml version="1.0" encoding="UTF-8" standalone="no"?>
<svg width="28px" height="30px" viewBox="0 0 28 30" version="1.1" xmlns="http://www.w3.org/2000/svg" xmlns:xlink="http://www.w3.org/1999/xlink">
    <!-- Generator: sketchtool 45 (43471) - http://www.bohemiancoding.com/sketch -->
    <title>Phone_Green_Contact</title>
    <desc>Created with sketchtool.</desc>
    <defs></defs>
    <g id="Carrier-Portal" stroke="none" stroke-width="1" fill="none" fill-rule="evenodd">
        <g id="Account_Contact" transform="translate(-576.000000, -287.000000)" stroke="#A5DB03">
            <g id="Contact" transform="translate(553.000000, 272.000000)">
                <g id="Phone_Green_Contact" transform="translate(24.000000, 16.000000)">
                    <path d="M25.6934509,21.6308873 C25.1439144,21.6054959 19.041104,18.5815066 18.4903857,18.5549062 C17.9396673,18.5283057 16.065334,20.548732 15.5169792,21.1399878 C14.9721698,21.7264071 10.2095196,17.1874004 10.1197029,17.1003443 C10.0405224,17.0048245 5.8262269,11.8769801 6.36985446,11.2905608 C6.91820923,10.6980959 8.79490614,8.67887868 8.77127016,8.08641376 C8.74645238,7.49394884 5.93731601,0.922424685 5.91486183,0.329959766 C5.89004404,-0.262505153 2.74645854,-0.0763018931 1.70411176,1.04454501 C0.815398869,2.00216177 -2.41327617,6.96435775 3.35390326,15.5913724 C3.85734966,16.5368981 5.01669454,18.034988 7.12502407,20.3069096 C7.12620586,20.3081187 7.12856946,20.3105369 7.12975126,20.311746 C7.13093306,20.3141642 7.13329666,20.3153733 7.13447846,20.3177916 C7.13684206,20.3190007 7.13684206,20.3214189 7.14038745,20.322628 C7.14038745,20.3238371 7.14156925,20.3238371 7.14275105,20.3262554 C9.25226238,22.5957587 10.6444217,23.8447715 11.5236802,24.3888719 C19.5339142,30.5988716 24.140567,27.1214652 25.0292799,26.1650576 C26.0704448,25.0430016 26.2441693,21.6574878 25.6934509,21.6308873"></path>
                </g>
            </g>
        </g>
    </g>
</svg>