<?xml version="1.0" encoding="UTF-8" standalone="no"?>
<svg width="20px" height="21px" viewBox="0 0 20 21" version="1.1" xmlns="http://www.w3.org/2000/svg" xmlns:xlink="http://www.w3.org/1999/xlink">
    <!-- Generator: sketchtool 45 (43471) - http://www.bohemiancoding.com/sketch -->
    <title>Phone_Menu</title>
    <desc>Created with sketchtool.</desc>
    <defs></defs>
    <g id="Shipper-Portal" stroke="none" stroke-width="1" fill="none" fill-rule="evenodd">
        <g id="Account_Past-Shipments" transform="translate(-26.000000, -321.000000)" stroke="#000000">
            <g id="Subnav" transform="translate(-1.000000, 136.000000)">
                <path d="M45.7877737,200.678102 C45.4073253,200.660872 41.1823028,198.608879 40.8010362,198.590829 C40.4197697,198.572779 39.1221543,199.943782 38.7425241,200.344992 C38.3653484,200.742919 35.068129,197.662879 35.0059482,197.603805 C34.9511309,197.538988 32.0335417,194.059379 32.4098992,193.661452 C32.7895295,193.259422 34.0887812,191.889239 34.0724178,191.487209 C34.0552363,191.08518 32.1104495,186.625931 32.0949043,186.223901 C32.0777228,185.821872 29.9013944,185.948224 29.1797697,186.708798 C28.5645069,187.35861 26.3292703,190.725814 30.321933,196.57986 C30.6704728,197.221467 31.4730962,198.238028 32.932709,199.779689 C32.9335271,199.780509 32.9351635,199.78215 32.9359816,199.782971 C32.9367998,199.784611 32.9384361,199.785432 32.9392543,199.787073 C32.9408907,199.787893 32.9408907,199.789534 32.9433452,199.790355 C32.9433452,199.791175 32.9441633,199.791175 32.9449815,199.792816 C34.4054124,201.332836 35.369215,202.180381 35.9779324,202.549592 C41.5234791,206.76352 44.7127002,204.403851 45.327963,203.754861 C46.0487695,202.993465 46.1690403,200.696152 45.7877737,200.678102" id="Phone_Menu"></path>
            </g>
        </g>
    </g>
</svg>