<?xml version="1.0" encoding="UTF-8" standalone="no"?>
<svg width="18px" height="21px" viewBox="0 0 18 21" version="1.1" xmlns="http://www.w3.org/2000/svg" xmlns:xlink="http://www.w3.org/1999/xlink">
    <!-- Generator: sketchtool 45 (43471) - http://www.bohemiancoding.com/sketch -->
    <title>Profile</title>
    <desc>Created with sketchtool.</desc>
    <defs></defs>
    <g id="Shipper-Portal" stroke="none" stroke-width="1" fill="none" fill-rule="evenodd">
        <g id="Account_Past-Shipments" transform="translate(-27.000000, -378.000000)" stroke="#000000">
            <g id="Subnav" transform="translate(-1.000000, 136.000000)">
                <g id="Profile" transform="translate(29.000000, 243.000000)">
                    <path d="M8.00835946,12.8134259 C6.97178683,12.8134259 6.00208986,12.612769 5.08254963,12.244898 C2.42424242,13.3150682 0.451410658,15.8065582 0,18.8331333 L16,18.8331333 C15.5651411,15.8065582 13.5923093,13.3150682 10.9341693,12.244898 C10.031348,12.612769 9.04476489,12.8134259 8.00835946,12.8134259 Z" id="Body"></path>
                    <path d="M8.06818182,0 C10.8296057,0 13.0681818,2.23857616 13.0681818,5 C13.0681818,7.76142384 10.8296057,10 8.06818182,10 C5.30675798,10 3.06818182,7.76142384 3.06818182,5 C3.06818182,2.23857616 5.30675798,0 8.06818182,0" id="Head"></path>
                </g>
            </g>
        </g>
    </g>
</svg>