<?xml version="1.0" encoding="UTF-8" standalone="no"?>
<svg width="19px" height="16px" viewBox="0 0 19 16" version="1.1" xmlns="http://www.w3.org/2000/svg" xmlns:xlink="http://www.w3.org/1999/xlink">
    <!-- Generator: sketchtool 45 (43471) - http://www.bohemiancoding.com/sketch -->
    <title>twitter</title>
    <desc>Created with sketchtool.</desc>
    <defs></defs>
    <g id="Shipper-Portal" stroke="none" stroke-width="1" fill="none" fill-rule="evenodd">
        <g id="Account_Referrals" transform="translate(-678.000000, -661.000000)" fill="#000000">
            <g id="Social-icons" transform="translate(642.000000, 658.000000)">
                <path d="M52.7611286,5.40357548 C53.5659824,4.92871659 54.1840958,4.17664574 54.475083,3.28063264 C53.7219355,3.72039535 52.887684,4.03968168 51.9997803,4.21181034 C51.2887485,3.46603353 50.2756098,3 49.154541,3 C47.0016385,3 45.2563406,4.71813949 45.2563406,6.83718275 C45.2563406,7.13799741 45.2908115,7.43080768 45.3572514,7.71164556 C42.1176121,7.55162612 39.2453381,6.02395013 37.3227514,3.70240257 C36.9871466,4.26914094 36.7949852,4.92830611 36.7949852,5.63152964 C36.7949852,6.96279015 37.4831523,8.13731506 38.5290939,8.8254876 C37.8901313,8.80557924 37.2890449,8.63290328 36.7635027,8.34549769 C36.7632247,8.36150647 36.7631552,8.37758367 36.7631552,8.39372928 C36.7631552,10.2529376 38.1068254,11.8038743 39.8900691,12.1564096 C39.562943,12.2440474 39.2185815,12.2909108 38.8631003,12.2909108 C38.6118658,12.2909108 38.3677201,12.2668976 38.1296902,12.2221551 C38.6257654,13.7466156 40.065273,14.8560792 41.7710267,14.8870706 C40.4369472,15.9162166 38.7562127,16.529613 36.9298804,16.529613 C36.6152639,16.529613 36.3049563,16.5114834 36,16.4760452 C37.7251435,17.5647794 39.7740773,18.1999998 41.9754197,18.1999998 C49.1454368,18.1999998 53.0662239,12.3529619 53.0662239,7.28214489 C53.0662239,7.11576299 53.0624015,6.95027045 53.0549652,6.78573571 C53.816522,6.24472086 54.4773764,5.56886277 54.9999998,4.79934645 C54.3009215,5.10453958 53.54972,5.31087504 52.7611286,5.40357548 Z" id="twitter"></path>
            </g>
        </g>
    </g>
</svg>