<?xml version="1.0" encoding="UTF-8" standalone="no"?>
<svg width="23px" height="16px" viewBox="0 0 23 16" version="1.1" xmlns="http://www.w3.org/2000/svg" xmlns:xlink="http://www.w3.org/1999/xlink">
    <!-- Generator: sketchtool 45 (43471) - http://www.bohemiancoding.com/sketch -->
    <title>Youtube</title>
    <desc>Created with sketchtool.</desc>
    <defs></defs>
    <g id="Shipper-Portal" stroke="none" stroke-width="1" fill="none" fill-rule="evenodd">
        <g id="Account_Referrals" transform="translate(-776.000000, -660.000000)" fill="#000000">
            <g id="Social-icons" transform="translate(642.000000, 658.000000)">
                <path d="M156.770326,5.45167123 C156.770326,5.45167123 156.545561,3.88403768 155.855977,3.19370343 C154.981371,2.28762999 154.001024,2.28315352 153.551449,2.23010399 C150.332932,2 145.504988,2 145.504988,2 L145.49499,2 C145.49499,2 140.667158,2 137.448529,2.23010399 C136.998931,2.28315352 136.018945,2.28762999 135.144023,3.19370343 C134.454416,3.88403768 134.230011,5.45167123 134.230011,5.45167123 C134.230011,5.45167123 134,7.29256998 134,9.13349099 L134,10.8593377 C134,12.7002142 134.230011,14.541113 134.230011,14.541113 C134.230011,14.541113 134.454416,16.1087688 135.144023,16.799103 C136.018945,17.7051542 137.168214,17.6765137 137.680094,17.7714772 C139.520118,17.9459928 145.500011,18 145.500011,18 C145.500011,18 150.332932,17.9928065 153.551449,17.7626802 C154.001024,17.7096529 154.981371,17.7051542 155.855977,16.799103 C156.545561,16.1087688 156.770326,14.541113 156.770326,14.541113 C156.770326,14.541113 157,12.7002142 157,10.8593377 L157,9.13349099 C157,7.29256998 156.770326,5.45167123 156.770326,5.45167123 L156.770326,5.45167123 Z M143.370379,13.2554614 L143.369312,6.74453855 L149.630688,10.0113431 L143.370379,13.2554614 Z" id="Youtube"></path>
            </g>
        </g>
    </g>
</svg>